<svg xmlns="http://www.w3.org/2000/svg" width="128" height="128"><path d="M101.799 95.936H34.89a8.849 8.849 0 0 1-8.849-8.849.337.337 0 0 1 .337-.337h83.933a.337.337 0 0 1 .337.337 8.849 8.849 0 0 1-8.849 8.849z" fill="#ffaa4d"/><path d="M109.14 44.5h-13.9v-5.75H41.45v27.79a20.212 20.212 0 0 0 20.21 20.21h13.37A20.233 20.233 0 0 0 94.85 70.5h1.74a19.275 19.275 0 0 0 19.28-19.27 6.732 6.732 0 0 0-6.73-6.73zM97.81 63.87H95.3V50.11h11.24a2.522 2.522 0 0 1 2.52 2.52c0 4.95-6.88 11.24-11.25 11.24z" fill="#ffc82c"/><path d="M68.35 58v9.58H55.18V58a6.582 6.582 0 0 1 4.86-6.35.908.908 0 0 1-.03-.23V38.75h3.5v12.67a1.785 1.785 0 0 1-.02.23A6.582 6.582 0 0 1 68.35 58z" fill="#f93e55"/><path fill="#254b8e" d="M60.01 38.75h3.48v12.9h-3.48z"/></svg>